<svg width="71" height="38" viewBox="0 0 71 38" fill="none" xmlns="http://www.w3.org/2000/svg">
<path d="M44.3747 38C39.7923 38 35.4304 37.7835 33.3519 37.6632C12.4321 36.437 10.1173 33.656 8.73161 31.9809C7.96264 31.0715 7.45979 29.9605 7.28023 28.7746C7.10068 27.5887 7.25171 26.3753 7.716 25.2724C8.33612 23.7551 9.49402 22.5306 10.9599 21.8421H10.6843L6.63735 21.4574L5.5114 21.3453C3.9294 16.3136 2.08975 11.3698 0 6.53396C0 4.93973 0.622105 3.41065 1.72952 2.28335C2.83694 1.15605 4.33895 0.522879 5.90508 0.522879C6.69242 0.522879 8.16477 0.458627 10.0623 0.386494C21.7464 -0.0783628 46.0596 -1.04 59.1059 4.12953C65.4047 6.62213 65.2156 10.9581 64.8377 12.6973C64.6202 13.7619 64.1437 14.7538 63.452 15.5825L64.5621 15.7989C68.6957 16.6645 70.8609 18.7644 70.9948 22.0344C71.105 24.7114 69.4752 27.7329 65.5936 28.4462C64.6331 28.6226 63.2316 28.783 61.4443 28.9352C61.9898 30.4073 61.9467 32.0385 61.324 33.4786C60.7013 34.9186 59.5488 36.0526 58.1139 36.6373C55.4054 37.7033 49.7365 38 44.3747 38Z" fill="#FFC83E"/>
</svg>
